<svg xmlns="http://www.w3.org/2000/svg" width="32" height="32" fill="#ffffff" viewBox="0 0 24 24">
  <path d="M12 .297a12 12 0 00-3.79 23.4c.6.113.82-.258.82-.577v-2.256c-3.34.724-4.042-1.415-4.042-1.415-.546-1.386-1.333-1.755-1.333-1.755-1.09-.745.083-.729.083-.729 1.205.086 1.838 1.237 1.838 1.237 1.07 1.834 2.809 1.304 3.495.997.108-.775.42-1.305.762-1.605-2.665-.303-5.466-1.332-5.466-5.931 0-1.31.468-2.381 1.236-3.221-.124-.303-.536-1.522.117-3.176 0 0 1.008-.322 3.3 1.23a11.52 11.52 0 016 0c2.291-1.552 3.297-1.23 3.297-1.23.655 1.654.243 2.873.119 3.176.77.84 1.234 1.911 1.234 3.221 0 4.609-2.804 5.625-5.475 5.921.432.372.816 1.103.816 2.222v3.293c0 .322.216.694.825.576A12 12 0 0012 .297z"/>
</svg>
